<svg height="424pt" viewBox="-7 0 424 424.46166" width="424pt" xmlns="http://www.w3.org/2000/svg"><g fill="#0e65e5"><path d="m238.300781 237.242188-50.84375-50.847657c-15.257812-15.257812-15.257812-40.09375.003907-55.351562l99.109374-99.113281c15.261719-15.261719 40.097657-15.261719 55.355469-.003907l50.84375 50.847657c15.261719 15.257812 15.261719 40.089843 0 55.351562l-99.113281 99.113281c-15.261719 15.261719-40.09375 15.261719-55.355469.003907zm84.316407-186.007813c-4.617188-4.617187-12.121094-4.613281-16.738282 0l-99.113281 99.113281c-4.613281 4.613282-4.617187 12.121094 0 16.738282l50.84375 50.84375c4.617187 4.613281 12.121094 4.613281 16.738281-.003907l99.113282-99.109375c4.613281-4.617187 4.617187-12.125 0-16.738281zm0 0"/><path d="m265.972656 255.507812c-11.769531 0-23.535156-4.480468-32.492187-13.441406l-50.847657-50.847656c-8.671874-8.667969-13.445312-20.210938-13.445312-32.503906 0-12.289063 4.773438-23.832032 13.445312-32.5l99.113282-99.113282c8.664062-8.671874 20.214844-13.449218 32.5-13.449218 12.292968-.003906 23.839844 4.773437 32.507812 13.445312l50.84375 50.847656c8.675782 8.664063 13.449219 20.207032 13.449219 32.5 0 12.292969-4.773437 23.835938-13.449219 32.503907l-99.113281 99.113281c-8.964844 8.960938-20.738281 13.445312-32.511719 13.445312zm48.28125-228.199218c-8.648437 0-16.761718 3.351562-22.855468 9.445312l-99.113282 99.113282c-6.09375 6.089843-9.445312 14.207031-9.445312 22.847656 0 8.644531 3.351562 16.761718 9.445312 22.851562l50.847656 50.847656c12.601563 12.605469 33.101563 12.589844 45.699219-.003906l99.113281-99.113281c6.09375-6.089844 9.445313-14.207031 9.445313-22.851563 0-8.644531-3.351563-16.757812-9.445313-22.847656l-50.847656-50.847656c-6.09375-6.089844-14.207031-9.441406-22.84375-9.441406zm-48.28125 200.910156c-4.988281 0-9.667968-1.941406-13.1875-5.460938l-50.847656-50.847656c-7.273438-7.273437-7.273438-19.109375 0-26.390625l99.113281-99.113281c7.28125-7.277344 19.128907-7.265625 26.394531 0l50.847657 50.84375c3.519531 3.523438 5.457031 8.210938 5.457031 13.195312 0 4.992188-1.945312 9.679688-5.464844 13.199219l-99.113281 99.109375c-3.519531 3.519532-8.207031 5.460938-13.191406 5.460938-.003907.003906-.003907.003906-.007813.003906zm48.28125-173.621094c-1.289062 0-2.566406.488282-3.546875 1.464844l-99.113281 99.109375c-1.953125 1.957031-1.953125 5.132813 0 7.085937l50.847656 50.84375c1.878906 1.886719 5.183594 1.886719 7.078125-.003906l99.113281-99.109375c.945313-.949219 1.464844-2.203125 1.464844-3.542969 0-1.339843-.519531-2.597656-1.457031-3.542968l-50.847656-50.839844c-.972657-.976562-2.261719-1.464844-3.539063-1.464844zm0 0"/><path d="m69.351562 406.191406-50.847656-50.847656c-15.257812-15.257812-15.257812-40.089844.003906-55.351562l99.113282-99.113282c15.261718-15.261718 40.09375-15.261718 55.351562-.003906l50.847656 50.847656c15.257813 15.257813 15.257813 40.089844-.003906 55.351563l-99.113281 99.113281c-15.257813 15.261719-40.09375 15.261719-55.351563.003906zm84.3125-186.007812c-4.613281-4.613282-12.121093-4.613282-16.734374.003906l-99.113282 99.109375c-4.617187 4.617187-4.621094 12.125-.003906 16.738281l50.847656 50.84375c4.613282 4.617188 12.121094 4.613282 16.734375 0l99.113281-99.113281c4.617188-4.613281 4.617188-12.121094.003907-16.738281zm0 0"/><path d="m97.03125 424.460938c-12.292969.003906-23.839844-4.773438-32.507812-13.441407l-50.847657-50.847656c-8.671875-8.667969-13.445312-20.210937-13.445312-32.503906 0-12.289063 4.773437-23.832031 13.445312-32.503907l99.113281-99.113281c17.929688-17.914062 47.082032-17.933593 65.007813-.003906l50.847656 50.847656c8.671875 8.671875 13.445313 20.214844 13.445313 32.503907 0 12.289062-4.773438 23.832031-13.445313 32.503906l-99.113281 99.113281c-8.667969 8.667969-20.214844 13.445313-32.5 13.445313zm48.269531-228.207032c-8.277343 0-16.546875 3.152344-22.855469 9.449219l-99.113281 99.113281c-6.09375 6.089844-9.445312 14.207032-9.445312 22.851563s3.351562 16.757812 9.445312 22.851562l50.847657 50.847657c6.09375 6.085937 14.207031 9.441406 22.847656 9.441406 8.644531 0 16.757812-3.355469 22.851562-9.445313l99.113282-99.113281c6.09375-6.089844 9.449218-14.207031 9.449218-22.851562 0-8.644532-3.355468-16.757813-9.449218-22.851563l-50.847657-50.847656c-6.292969-6.296875-14.574219-9.445313-22.84375-9.445313zm-48.277343 200.910156c-4.78125 0-9.558594-1.820312-13.191407-5.457031l-50.847656-50.84375c-3.519531-3.523437-5.457031-8.210937-5.457031-13.195312 0-4.988281 1.945312-9.675781 5.464844-13.195313l99.113281-99.109375c3.519531-3.523437 8.207031-5.464843 13.191406-5.464843h.007813c4.988281 0 9.667968 1.9375 13.1875 5.460937l50.847656 50.847656c7.273437 7.273438 7.273437 19.109375 0 26.390625l-99.113282 99.113282c-3.640624 3.632812-8.429687 5.453124-13.203124 5.453124zm48.277343-173.613281c-1.339843 0-2.597656.519531-3.542969 1.464844l-99.109374 99.109375c-.949219.949219-1.46875 2.203125-1.46875 3.542969 0 1.339843.519531 2.597656 1.460937 3.542969l50.847656 50.839843c1.945313 1.957031 5.140625 1.941407 7.085938 0l99.113281-99.109375c1.953125-1.957031 1.953125-5.132812 0-7.085937l-50.847656-50.84375c-.941406-.945313-2.199219-1.460938-3.539063-1.460938zm0 0"/><path d="m130.816406 287.054688c-5.332031-5.332032-4.25-15.058594 2.414063-21.722657l120.679687-120.683593c6.664063-6.664063 16.390625-7.742188 21.722656-2.410157 5.332032 5.332031 4.25 15.058594-2.414062 21.722657l-120.679688 120.679687c-6.664062 6.660156-16.390624 7.742187-21.722656 2.414063zm0 0"/><path d="m139.464844 297.222656c-5.058594 0-9.878906-1.753906-13.472656-5.339844v-.003906c-4.019532-4.015625-5.933594-9.824218-5.253907-15.941406.625-5.640625 3.355469-11.121094 7.667969-15.4375l120.679688-120.675781c4.3125-4.316407 9.792968-7.039063 15.433593-7.664063 6.046875-.710937 11.925781 1.230469 15.9375 5.25 4.015625 4.015625 5.9375 9.824219 5.253907 15.941406-.625 5.640626-3.351563 11.121094-7.664063 15.4375l-120.679687 120.675782c-5.128907 5.125-11.695313 7.757812-17.902344 7.757812zm127.488281-151.546875c-.347656 0-.667969.027344-.929687.050781-2.53125.285157-5.183594 1.648438-7.285157 3.746094l-120.679687 120.683594c-2.101563 2.101562-3.46875 4.757812-3.746094 7.289062-.132812 1.15625-.128906 3.320313 1.332031 4.777344v.003906c2.574219 2.558594 8.210938 1.4375 12.066407-2.414062l120.679687-120.679688c2.097656-2.101562 3.464844-4.757812 3.746094-7.289062.132812-1.15625.125-3.320312-1.332031-4.777344-1.128907-1.128906-2.671876-1.390625-3.851563-1.390625zm0 0"/></g><path d="m238.300781 223.585938-50.84375-50.84375c-15.257812-15.257813-15.257812-40.09375.003907-55.355469l99.109374-99.113281c15.261719-15.257813 40.097657-15.257813 55.355469 0l50.84375 50.84375c15.261719 15.261718 15.261719 40.09375 0 55.355468l-99.113281 99.113282c-15.261719 15.261718-40.09375 15.261718-55.355469 0zm84.316407-186.007813c-4.617188-4.613281-12.121094-4.613281-16.738282.003906l-99.113281 99.113281c-4.613281 4.613282-4.617187 12.121094 0 16.734376l50.84375 50.847656c4.617187 4.613281 12.121094 4.613281 16.738281-.003906l99.113282-99.113282c4.613281-4.613281 4.617187-12.121094 0-16.734375zm0 0" fill="#d7e9ff"/><path d="m265.972656 241.851562c-11.769531 0-23.535156-4.476562-32.492187-13.4375l-50.847657-50.847656c-8.671874-8.667968-13.445312-20.214844-13.445312-32.503906s4.773438-23.832031 13.445312-32.503906l99.113282-99.113282c8.664062-8.667968 20.214844-13.445312 32.5-13.445312 12.292968-.00390625 23.839844 4.773438 32.507812 13.445312l50.84375 50.84375c8.675782 8.667969 13.449219 20.210938 13.449219 32.503907 0 12.289062-4.773437 23.835937-13.449219 32.503906l-99.113281 99.113281c-8.964844 8.960938-20.738281 13.441406-32.511719 13.441406zm48.28125-228.199218c-8.648437 0-16.761718 3.355468-22.855468 9.449218l-99.113282 99.109376c-6.09375 6.089843-9.445312 14.207031-9.445312 22.851562s3.351562 16.761719 9.445312 22.851562l50.847656 50.847657c12.601563 12.605469 33.101563 12.585937 45.699219-.003907l99.113281-99.113281c6.09375-6.089843 9.445313-14.207031 9.445313-22.851562s-3.351563-16.757813-9.445313-22.851563l-50.847656-50.84375c-6.09375-6.089844-14.207031-9.445312-22.84375-9.445312zm-48.28125 200.910156c-4.988281 0-9.667968-1.9375-13.1875-5.457031l-50.847656-50.847657c-7.273438-7.273437-7.273438-19.109374 0-26.390624l99.113281-99.113282c7.28125-7.28125 19.128907-7.265625 26.394531 0l50.847657 50.84375c3.519531 3.523438 5.457031 8.210938 5.457031 13.195313 0 4.992187-1.945312 9.675781-5.464844 13.195312l-99.113281 99.109375c-3.519531 3.523438-8.207031 5.464844-13.191406 5.464844-.003907 0-.003907 0-.007813 0zm48.28125-173.617188c-1.289062 0-2.566406.488282-3.546875 1.464844l-99.113281 99.109375c-1.953125 1.953125-1.953125 5.132813 0 7.082031l50.847656 50.847657c1.878906 1.886719 5.183594 1.882812 7.078125-.003907l99.113281-99.113281c.945313-.945312 1.464844-2.203125 1.464844-3.542969 0-1.339843-.519531-2.59375-1.457031-3.539062l-50.847656-50.84375c-.972657-.976562-2.261719-1.460938-3.539063-1.460938zm0 0" fill="#0e65e5"/><path d="m69.351562 392.539062-50.847656-50.84375c-15.257812-15.261718-15.257812-40.09375.003906-55.355468l99.113282-99.113282c15.261718-15.261718 40.09375-15.261718 55.351562 0l50.847656 50.84375c15.257813 15.257813 15.257813 40.09375-.003906 55.351563l-99.113281 99.113281c-15.257813 15.261719-40.09375 15.261719-55.351563.003906zm84.3125-186.007812c-4.613281-4.617188-12.121093-4.613281-16.734374 0l-99.113282 99.113281c-4.617187 4.617188-4.621094 12.125-.003906 16.738281l50.847656 50.84375c4.613282 4.617188 12.121094 4.613282 16.734375 0l99.113281-99.113281c4.617188-4.617187 4.617188-12.121093.003907-16.738281zm0 0" fill="#d7e9ff"/><path d="m97.03125 410.808594c-12.292969.003906-23.839844-4.773438-32.507812-13.445313l-50.847657-50.84375c-8.671875-8.667969-13.445312-20.210937-13.445312-32.503906 0-12.289063 4.773437-23.835937 13.445312-32.503906l99.113281-99.113281c17.929688-17.917969 47.082032-17.929688 65.007813-.003907l50.847656 50.847657c8.671875 8.667968 13.445313 20.214843 13.445313 32.503906 0 12.289062-4.773438 23.832031-13.445313 32.503906l-99.113281 99.113281c-8.667969 8.667969-20.214844 13.445313-32.5 13.445313zm48.269531-228.207032c-8.277343 0-16.546875 3.148438-22.855469 9.449219l-99.113281 99.113281c-6.09375 6.089844-9.445312 14.207032-9.445312 22.851563s3.351562 16.757813 9.445312 22.851563l50.847657 50.84375c6.09375 6.089843 14.207031 9.445312 22.847656 9.445312 8.644531 0 16.757812-3.355469 22.851562-9.449219l99.113282-99.113281c6.09375-6.085938 9.449218-14.203125 9.449218-22.847656 0-8.644532-3.355468-16.761719-9.449218-22.851563l-50.847657-50.847656c-6.292969-6.296875-14.574219-9.445313-22.84375-9.445313zm-48.277343 200.910157c-4.78125 0-9.558594-1.820313-13.191407-5.457031l-50.847656-50.84375c-3.519531-3.523438-5.457031-8.210938-5.457031-13.195313 0-4.992187 1.945312-9.675781 5.464844-13.195313l99.113281-99.109374c3.519531-3.523438 8.207031-5.464844 13.191406-5.464844h.007813c4.988281 0 9.667968 1.9375 13.1875 5.460937l50.847656 50.84375c7.273437 7.277344 7.273437 19.109375 0 26.390625l-99.113282 99.113282c-3.640624 3.636718-8.429687 5.457031-13.203124 5.457031zm48.277343-173.613281c-1.339843 0-2.597656.519531-3.542969 1.460937l-99.109374 99.113281c-.949219.949219-1.46875 2.203125-1.46875 3.542969s.519531 2.597656 1.460937 3.539063l50.847656 50.84375c1.945313 1.953124 5.140625 1.945312 7.085938-.003907l99.113281-99.109375c1.953125-1.953125 1.953125-5.128906 0-7.082031l-50.847656-50.847656c-.941406-.941407-2.199219-1.457031-3.539063-1.457031zm0 0" fill="#0e65e5"/><path d="m130.816406 280.226562c-5.332031-5.332031-4.25-15.058593 2.414063-21.722656l120.679687-120.679687c6.664063-6.664063 16.390625-7.746094 21.722656-2.414063 5.332032 5.332032 4.25 15.058594-2.414062 21.722656l-120.679688 120.679688c-6.664062 6.664062-16.390624 7.746094-21.722656 2.414062zm0 0" fill="#d7e9ff"/><path d="m139.464844 290.398438c-5.058594 0-9.878906-1.757813-13.472656-5.34375v-.003907c-4.019532-4.015625-5.933594-9.824219-5.253907-15.941406.625-5.640625 3.355469-11.121094 7.667969-15.4375l120.679688-120.675781c4.3125-4.316406 9.792968-7.039063 15.433593-7.660156 6.046875-.71875 11.925781 1.230468 15.9375 5.246093 4.015625 4.015625 5.9375 9.824219 5.253907 15.941407-.625 5.640624-3.351563 11.121093-7.664063 15.4375l-120.679687 120.675781c-5.128907 5.128906-11.695313 7.761719-17.902344 7.761719zm127.488281-151.546876c-.347656 0-.667969.023438-.929687.050782-2.53125.28125-5.183594 1.644531-7.285157 3.746094l-120.679687 120.683593c-2.101563 2.097657-3.46875 4.753907-3.746094 7.285157-.132812 1.15625-.128906 3.320312 1.332031 4.777343v.003907c2.574219 2.558593 8.210938 1.441406 12.066407-2.414063l120.679687-120.679687c2.097656-2.097657 3.464844-4.757813 3.746094-7.289063.132812-1.15625.125-3.316406-1.332031-4.777344-1.128907-1.128906-2.671876-1.386719-3.851563-1.386719zm0 0" fill="#0e65e5"/><path d="m144.199219 72.285156c-3.773438 0-6.828125-3.058594-6.828125-6.828125v-27.304687c0-3.773438 3.054687-6.828125 6.828125-6.828125 3.773437 0 6.824219 3.054687 6.824219 6.828125v27.304687c0 3.769531-3.050782 6.828125-6.824219 6.828125zm0 0" fill="#0e65e5"/><path d="m157.851562 58.628906h-27.304687c-3.773437 0-6.828125-3.054687-6.828125-6.824218 0-3.769532 3.054688-6.828126 6.828125-6.828126h27.304687c3.773438 0 6.828126 3.058594 6.828126 6.828126 0 3.769531-3.054688 6.824218-6.828126 6.824218zm0 0" fill="#0e65e5"/><path d="m321.691406 345.351562c-3.773437 0-6.828125-3.058593-6.828125-6.828124v-27.304688c0-3.769531 3.054688-6.828125 6.828125-6.828125 3.773438 0 6.828125 3.058594 6.828125 6.828125v27.304688c0 3.769531-3.054687 6.828124-6.828125 6.828124zm0 0" fill="#0e65e5"/><path d="m335.34375 331.699219h-27.304688c-3.773437 0-6.828124-3.058594-6.828124-6.828125 0-3.769532 3.054687-6.828125 6.828124-6.828125h27.304688c3.773438 0 6.828125 3.058593 6.828125 6.828125 0 3.769531-3.054687 6.828125-6.828125 6.828125zm0 0" fill="#0e65e5"/><path d="m86.171875 246.363281c-1.746094 0-3.492187-.667969-4.828125-2-2.664062-2.664062-2.664062-6.988281 0-9.652343l37.546875-37.546876c2.667969-2.664062 6.988281-2.664062 9.652344 0 2.667969 2.667969 2.667969 6.988282 0 9.652344l-37.542969 37.546875c-1.335938 1.332031-3.082031 2-4.828125 2zm0 0" fill="#fff"/></svg>